<svg version="1.2" baseProfile="tiny-ps" xmlns="http://www.w3.org/2000/svg" viewBox="0 0 1280 1280" width="1280" height="1280">
	<title>Logo</title>
	<style>
		tspan { white-space:pre }
		.shp0 { fill: #000000 } 
	</style>
	<g id="Folder 1">
		<path id="vertical" class="shp0" d="M1229.92 255.81C1252.01 255.81 1269.92 273.71 1269.92 295.81L1269.92 984.19C1269.92 1006.29 1252.01 1024.19 1229.92 1024.19L1160.58 1024.19C1138.49 1024.19 1120.58 1006.29 1120.58 984.19L1120.58 295.81C1120.58 273.71 1138.49 255.81 1160.58 255.81L1229.92 255.81Z" />
		<path id="Layer 1" class="shp0" d="M10.08 297.16C10.08 275.07 27.99 257.16 50.08 257.16L738.47 257.16C760.56 257.16 778.47 275.07 778.47 297.16L778.47 366.5C778.47 388.59 760.56 406.5 738.47 406.5L50.08 406.5C27.99 406.5 10.08 388.59 10.08 366.5L10.08 297.16Z" />
		<path id="Layer 1 copy" class="shp0" d="M10.08 608.05C10.08 585.96 27.99 568.05 50.08 568.05L738.47 568.05C760.56 568.05 778.47 585.96 778.47 608.05L778.47 677.38C778.47 699.47 760.56 717.38 738.47 717.38L50.08 717.38C27.99 717.38 10.08 699.47 10.08 677.38L10.08 608.05Z" />
		<path id="Layer 1 copy 2" class="shp0" d="M10.08 914.86C10.08 892.77 27.99 874.86 50.08 874.86L738.47 874.86C760.56 874.86 778.47 892.77 778.47 914.86L778.47 984.19C778.47 1006.29 760.56 1024.19 738.47 1024.19L50.08 1024.19C27.99 1024.19 10.08 1006.29 10.08 984.19L10.08 914.86Z" />
		<path id="Shape 1" class="shp0" d="M954.96 1022.84C886.64 1022.84 831.42 967.61 831.42 899.3C831.42 830.98 886.64 775.76 954.96 775.76C1023.27 775.76 1078.5 830.98 1078.5 899.3C1078.5 967.61 1023.27 1022.84 954.96 1022.84Z" />
	</g>
</svg>